<mxfile host="app.diagrams.net" agent="Mozilla/5.0 (Windows NT 10.0; Win64; x64) AppleWebKit/537.36 (KHTML, like Gecko) Chrome/133.0.0.0 Safari/537.36" version="26.2.12">
  <diagram name="페이지-1" id="EOON8v3r7L1G38ODDXJG">
    <mxGraphModel dx="1019" dy="1352" grid="0" gridSize="10" guides="1" tooltips="1" connect="1" arrows="1" fold="1" page="0" pageScale="1" pageWidth="827" pageHeight="1169" math="0" shadow="0">
      <root>
        <mxCell id="0" />
        <mxCell id="1" parent="0" />
        <mxCell id="nfWsPFXT3LQyvgMIe1YN-46" value="" style="rounded=0;whiteSpace=wrap;html=1;" vertex="1" parent="1">
          <mxGeometry x="-206" y="641" width="180" height="217" as="geometry" />
        </mxCell>
        <mxCell id="nfWsPFXT3LQyvgMIe1YN-1" value="" style="rounded=0;whiteSpace=wrap;html=1;" vertex="1" parent="1">
          <mxGeometry x="7" y="-14" width="348" height="322" as="geometry" />
        </mxCell>
        <mxCell id="nfWsPFXT3LQyvgMIe1YN-2" value="" style="rounded=0;whiteSpace=wrap;html=1;" vertex="1" parent="1">
          <mxGeometry x="7" y="134" width="189" height="174" as="geometry" />
        </mxCell>
        <mxCell id="nfWsPFXT3LQyvgMIe1YN-3" value="" style="rounded=0;whiteSpace=wrap;html=1;" vertex="1" parent="1">
          <mxGeometry x="195" y="134" width="160" height="174" as="geometry" />
        </mxCell>
        <mxCell id="nfWsPFXT3LQyvgMIe1YN-4" value="이미지 1" style="text;html=1;align=center;verticalAlign=middle;whiteSpace=wrap;rounded=0;" vertex="1" parent="1">
          <mxGeometry x="130" y="49" width="60" height="30" as="geometry" />
        </mxCell>
        <mxCell id="nfWsPFXT3LQyvgMIe1YN-5" value="이미지 2" style="text;html=1;align=center;verticalAlign=middle;whiteSpace=wrap;rounded=0;" vertex="1" parent="1">
          <mxGeometry x="95" y="206" width="60" height="30" as="geometry" />
        </mxCell>
        <mxCell id="nfWsPFXT3LQyvgMIe1YN-6" value="이미지 3" style="text;html=1;align=center;verticalAlign=middle;whiteSpace=wrap;rounded=0;" vertex="1" parent="1">
          <mxGeometry x="245" y="213" width="60" height="30" as="geometry" />
        </mxCell>
        <mxCell id="nfWsPFXT3LQyvgMIe1YN-7" value="" style="rounded=0;whiteSpace=wrap;html=1;" vertex="1" parent="1">
          <mxGeometry x="10" y="338" width="347" height="229" as="geometry" />
        </mxCell>
        <mxCell id="nfWsPFXT3LQyvgMIe1YN-8" value="이미지 1" style="text;html=1;align=center;verticalAlign=middle;whiteSpace=wrap;rounded=0;" vertex="1" parent="1">
          <mxGeometry x="138" y="574" width="60" height="30" as="geometry" />
        </mxCell>
        <mxCell id="nfWsPFXT3LQyvgMIe1YN-9" value="각 캐릭터 별 행동순서&lt;div&gt;마름모 도형, 캐릭터 이미지, 순서&lt;/div&gt;" style="rounded=1;whiteSpace=wrap;html=1;" vertex="1" parent="1">
          <mxGeometry x="213" y="340" width="133" height="44" as="geometry" />
        </mxCell>
        <mxCell id="nfWsPFXT3LQyvgMIe1YN-10" value="각 아군 캐릭터의&lt;div&gt;이미지 모델&lt;/div&gt;" style="rounded=1;whiteSpace=wrap;html=1;" vertex="1" parent="1">
          <mxGeometry x="27" y="391" width="143" height="104" as="geometry" />
        </mxCell>
        <mxCell id="nfWsPFXT3LQyvgMIe1YN-11" value="&lt;div&gt;각 아군 캐릭터의&lt;div&gt;이미지 모델&lt;/div&gt;&lt;/div&gt;" style="rounded=1;whiteSpace=wrap;html=1;" vertex="1" parent="1">
          <mxGeometry x="197" y="391" width="143" height="104" as="geometry" />
        </mxCell>
        <mxCell id="nfWsPFXT3LQyvgMIe1YN-12" value="각 아군 별 체력(막대 형식), 상태이상(이미지)&lt;div&gt;효과 표시&lt;/div&gt;" style="rounded=1;whiteSpace=wrap;html=1;" vertex="1" parent="1">
          <mxGeometry x="31" y="507" width="139" height="40" as="geometry" />
        </mxCell>
        <mxCell id="nfWsPFXT3LQyvgMIe1YN-13" value="각 적군 별 체력(막대 형식), 상태이상(이미지)&lt;div&gt;효과 표시&lt;/div&gt;" style="rounded=1;whiteSpace=wrap;html=1;" vertex="1" parent="1">
          <mxGeometry x="200" y="507" width="139" height="40" as="geometry" />
        </mxCell>
        <mxCell id="nfWsPFXT3LQyvgMIe1YN-14" value="현제 턴" style="rounded=1;whiteSpace=wrap;html=1;" vertex="1" parent="1">
          <mxGeometry x="149" y="346" width="44" height="44" as="geometry" />
        </mxCell>
        <mxCell id="nfWsPFXT3LQyvgMIe1YN-15" value="임무 목표" style="rounded=1;whiteSpace=wrap;html=1;" vertex="1" parent="1">
          <mxGeometry x="27" y="352" width="82" height="30" as="geometry" />
        </mxCell>
        <mxCell id="nfWsPFXT3LQyvgMIe1YN-16" style="edgeStyle=none;curved=1;rounded=0;orthogonalLoop=1;jettySize=auto;html=1;exitX=0;exitY=0.5;exitDx=0;exitDy=0;fontSize=12;startSize=8;endSize=8;" edge="1" parent="1" source="nfWsPFXT3LQyvgMIe1YN-9" target="nfWsPFXT3LQyvgMIe1YN-9">
          <mxGeometry relative="1" as="geometry" />
        </mxCell>
        <mxCell id="nfWsPFXT3LQyvgMIe1YN-17" value="" style="rounded=0;whiteSpace=wrap;html=1;" vertex="1" parent="1">
          <mxGeometry x="10" y="600" width="351" height="206" as="geometry" />
        </mxCell>
        <mxCell id="nfWsPFXT3LQyvgMIe1YN-18" value="이미지 2" style="text;html=1;align=center;verticalAlign=middle;whiteSpace=wrap;rounded=0;" vertex="1" parent="1">
          <mxGeometry x="138" y="813" width="60" height="30" as="geometry" />
        </mxCell>
        <mxCell id="nfWsPFXT3LQyvgMIe1YN-19" value="선택된 캐릭터의 스킬셋(각각의 개별 버튼)&lt;div&gt;마우스 오버 시에 상세&lt;span style=&quot;background-color: transparent; color: light-dark(rgb(0, 0, 0), rgb(255, 255, 255));&quot;&gt;정보 표시(팝업 창[텍스트 및 일부 이미지 활용])&lt;/span&gt;&lt;/div&gt;" style="rounded=1;whiteSpace=wrap;html=1;" vertex="1" parent="1">
          <mxGeometry x="38.5" y="614" width="278.5" height="56" as="geometry" />
        </mxCell>
        <mxCell id="nfWsPFXT3LQyvgMIe1YN-20" value="캐릭터의 스텟(텍스트)" style="rounded=1;whiteSpace=wrap;html=1;" vertex="1" parent="1">
          <mxGeometry x="36.5" y="675" width="156.5" height="122" as="geometry" />
        </mxCell>
        <mxCell id="nfWsPFXT3LQyvgMIe1YN-21" value="캐릭터의 장비&lt;div&gt;및 악세사리&lt;/div&gt;&lt;div&gt;(각각의 칸을 할당 후 이미지 적용[마우스 오버 시에 팝업창])&lt;/div&gt;" style="rounded=1;whiteSpace=wrap;html=1;" vertex="1" parent="1">
          <mxGeometry x="202" y="675" width="136" height="122" as="geometry" />
        </mxCell>
        <mxCell id="nfWsPFXT3LQyvgMIe1YN-22" value="" style="rounded=0;whiteSpace=wrap;html=1;" vertex="1" parent="1">
          <mxGeometry x="7" y="838" width="360" height="211" as="geometry" />
        </mxCell>
        <mxCell id="nfWsPFXT3LQyvgMIe1YN-23" value="1. 인벤토리(각각의 칸에 이미지 배치 및 마우스 오버 시에 상세 설명)&lt;div&gt;&lt;br&gt;&lt;/div&gt;&lt;div&gt;2. 지도(전체 맵 표시[loadmap] 및 인접 노드 선택 시 방 이동[movemap])&lt;/div&gt;" style="rounded=1;whiteSpace=wrap;html=1;" vertex="1" parent="1">
          <mxGeometry x="33.5" y="858" width="276.5" height="173" as="geometry" />
        </mxCell>
        <mxCell id="nfWsPFXT3LQyvgMIe1YN-24" value="인벤&lt;div&gt;토리&lt;/div&gt;" style="ellipse;whiteSpace=wrap;html=1;aspect=fixed;" vertex="1" parent="1">
          <mxGeometry x="319" y="885" width="39" height="39" as="geometry" />
        </mxCell>
        <mxCell id="nfWsPFXT3LQyvgMIe1YN-25" value="지도" style="ellipse;whiteSpace=wrap;html=1;aspect=fixed;" vertex="1" parent="1">
          <mxGeometry x="321" y="951" width="39" height="39" as="geometry" />
        </mxCell>
        <mxCell id="nfWsPFXT3LQyvgMIe1YN-26" value="이미지 3" style="text;html=1;align=center;verticalAlign=middle;whiteSpace=wrap;rounded=0;" vertex="1" parent="1">
          <mxGeometry x="142" y="1060" width="60" height="30" as="geometry" />
        </mxCell>
        <mxCell id="nfWsPFXT3LQyvgMIe1YN-28" value="" style="endArrow=none;html=1;rounded=0;fontSize=12;startSize=8;endSize=8;curved=1;entryX=1;entryY=0.5;entryDx=0;entryDy=0;" edge="1" parent="1" target="nfWsPFXT3LQyvgMIe1YN-24">
          <mxGeometry width="50" height="50" relative="1" as="geometry">
            <mxPoint x="417" y="935" as="sourcePoint" />
            <mxPoint x="225" y="697" as="targetPoint" />
          </mxGeometry>
        </mxCell>
        <mxCell id="nfWsPFXT3LQyvgMIe1YN-29" value="버튼" style="text;html=1;align=center;verticalAlign=middle;whiteSpace=wrap;rounded=0;" vertex="1" parent="1">
          <mxGeometry x="412" y="928.5" width="60" height="30" as="geometry" />
        </mxCell>
        <mxCell id="nfWsPFXT3LQyvgMIe1YN-30" value="" style="endArrow=none;html=1;rounded=0;fontSize=12;startSize=8;endSize=8;curved=1;entryX=1;entryY=0.5;entryDx=0;entryDy=0;" edge="1" parent="1" target="nfWsPFXT3LQyvgMIe1YN-9">
          <mxGeometry width="50" height="50" relative="1" as="geometry">
            <mxPoint x="395" y="416" as="sourcePoint" />
            <mxPoint x="424" y="697" as="targetPoint" />
          </mxGeometry>
        </mxCell>
        <mxCell id="nfWsPFXT3LQyvgMIe1YN-31" value="도형 안의 이미지" style="text;html=1;align=center;verticalAlign=middle;whiteSpace=wrap;rounded=0;" vertex="1" parent="1">
          <mxGeometry x="370" y="415" width="60" height="30" as="geometry" />
        </mxCell>
        <mxCell id="nfWsPFXT3LQyvgMIe1YN-32" value="" style="endArrow=none;html=1;rounded=0;fontSize=12;startSize=8;endSize=8;curved=1;entryX=0;entryY=0.5;entryDx=0;entryDy=0;" edge="1" parent="1" target="nfWsPFXT3LQyvgMIe1YN-10">
          <mxGeometry width="50" height="50" relative="1" as="geometry">
            <mxPoint x="-42" y="461" as="sourcePoint" />
            <mxPoint x="245" y="697" as="targetPoint" />
          </mxGeometry>
        </mxCell>
        <mxCell id="nfWsPFXT3LQyvgMIe1YN-33" value="각 캐릭터의 이미지" style="text;html=1;align=center;verticalAlign=middle;whiteSpace=wrap;rounded=0;" vertex="1" parent="1">
          <mxGeometry x="-101" y="461" width="60" height="30" as="geometry" />
        </mxCell>
        <mxCell id="nfWsPFXT3LQyvgMIe1YN-34" value="텍스트" style="text;html=1;align=center;verticalAlign=middle;whiteSpace=wrap;rounded=0;" vertex="1" parent="1">
          <mxGeometry x="-101" y="340" width="60" height="30" as="geometry" />
        </mxCell>
        <mxCell id="nfWsPFXT3LQyvgMIe1YN-35" value="" style="endArrow=none;html=1;rounded=0;fontSize=12;startSize=8;endSize=8;curved=1;entryX=0;entryY=0.5;entryDx=0;entryDy=0;exitX=1;exitY=0.5;exitDx=0;exitDy=0;" edge="1" parent="1" source="nfWsPFXT3LQyvgMIe1YN-34" target="nfWsPFXT3LQyvgMIe1YN-15">
          <mxGeometry width="50" height="50" relative="1" as="geometry">
            <mxPoint x="89" y="647" as="sourcePoint" />
            <mxPoint x="139" y="597" as="targetPoint" />
          </mxGeometry>
        </mxCell>
        <mxCell id="nfWsPFXT3LQyvgMIe1YN-36" value="" style="endArrow=none;html=1;rounded=0;fontSize=12;startSize=8;endSize=8;curved=1;entryX=0;entryY=0;entryDx=0;entryDy=0;" edge="1" parent="1" target="nfWsPFXT3LQyvgMIe1YN-14">
          <mxGeometry width="50" height="50" relative="1" as="geometry">
            <mxPoint x="-50" y="343" as="sourcePoint" />
            <mxPoint x="139" y="597" as="targetPoint" />
          </mxGeometry>
        </mxCell>
        <mxCell id="nfWsPFXT3LQyvgMIe1YN-37" value="" style="endArrow=none;html=1;rounded=0;fontSize=12;startSize=8;endSize=8;curved=1;entryX=0;entryY=0.5;entryDx=0;entryDy=0;" edge="1" parent="1" target="nfWsPFXT3LQyvgMIe1YN-12">
          <mxGeometry width="50" height="50" relative="1" as="geometry">
            <mxPoint x="-53" y="533" as="sourcePoint" />
            <mxPoint x="139" y="497" as="targetPoint" />
          </mxGeometry>
        </mxCell>
        <mxCell id="nfWsPFXT3LQyvgMIe1YN-38" value="" style="rounded=0;whiteSpace=wrap;html=1;" vertex="1" parent="1">
          <mxGeometry x="-135" y="538" width="108" height="27" as="geometry" />
        </mxCell>
        <mxCell id="nfWsPFXT3LQyvgMIe1YN-39" value="" style="rounded=0;whiteSpace=wrap;html=1;" vertex="1" parent="1">
          <mxGeometry x="-135" y="538" width="70" height="27" as="geometry" />
        </mxCell>
        <mxCell id="nfWsPFXT3LQyvgMIe1YN-40" value="현제체력 / 최대체력" style="text;html=1;align=center;verticalAlign=middle;whiteSpace=wrap;rounded=0;" vertex="1" parent="1">
          <mxGeometry x="-134" y="570" width="99" height="34" as="geometry" />
        </mxCell>
        <mxCell id="nfWsPFXT3LQyvgMIe1YN-41" value="" style="endArrow=none;html=1;rounded=0;fontSize=12;startSize=8;endSize=8;curved=1;entryX=0;entryY=0.5;entryDx=0;entryDy=0;exitX=1;exitY=0.5;exitDx=0;exitDy=0;" edge="1" parent="1" source="nfWsPFXT3LQyvgMIe1YN-46" target="nfWsPFXT3LQyvgMIe1YN-19">
          <mxGeometry width="50" height="50" relative="1" as="geometry">
            <mxPoint x="-105" y="642" as="sourcePoint" />
            <mxPoint x="66" y="597" as="targetPoint" />
          </mxGeometry>
        </mxCell>
        <mxCell id="nfWsPFXT3LQyvgMIe1YN-42" value="" style="rounded=0;whiteSpace=wrap;html=1;" vertex="1" parent="1">
          <mxGeometry x="-83" y="650" width="38" height="35" as="geometry" />
        </mxCell>
        <mxCell id="nfWsPFXT3LQyvgMIe1YN-43" value="" style="rounded=0;whiteSpace=wrap;html=1;" vertex="1" parent="1">
          <mxGeometry x="-128" y="650" width="38" height="35" as="geometry" />
        </mxCell>
        <mxCell id="nfWsPFXT3LQyvgMIe1YN-44" value="" style="rounded=0;whiteSpace=wrap;html=1;" vertex="1" parent="1">
          <mxGeometry x="-174" y="650" width="38" height="35" as="geometry" />
        </mxCell>
        <mxCell id="nfWsPFXT3LQyvgMIe1YN-45" value="스킬 이름&lt;div&gt;사용 범위&lt;/div&gt;&lt;div&gt;대상 범위&lt;/div&gt;&lt;div&gt;데미지 배율&lt;/div&gt;&lt;div&gt;추가 효과&lt;/div&gt;&lt;div&gt;명중률&lt;/div&gt;" style="rounded=0;whiteSpace=wrap;html=1;" vertex="1" parent="1">
          <mxGeometry x="-170" y="716" width="94" height="117" as="geometry" />
        </mxCell>
        <mxCell id="nfWsPFXT3LQyvgMIe1YN-47" value="팝업 창" style="text;html=1;align=center;verticalAlign=middle;whiteSpace=wrap;rounded=0;" vertex="1" parent="1">
          <mxGeometry x="-158" y="828" width="60" height="30" as="geometry" />
        </mxCell>
        <mxCell id="nfWsPFXT3LQyvgMIe1YN-48" value="스킬 셋" style="text;html=1;align=center;verticalAlign=middle;whiteSpace=wrap;rounded=0;" vertex="1" parent="1">
          <mxGeometry x="-158" y="687" width="60" height="30" as="geometry" />
        </mxCell>
        <mxCell id="nfWsPFXT3LQyvgMIe1YN-49" value="" style="rounded=0;whiteSpace=wrap;html=1;" vertex="1" parent="1">
          <mxGeometry x="397" y="614" width="298" height="186" as="geometry" />
        </mxCell>
        <mxCell id="nfWsPFXT3LQyvgMIe1YN-50" value="무기" style="rounded=0;whiteSpace=wrap;html=1;" vertex="1" parent="1">
          <mxGeometry x="417" y="632" width="57" height="79.5" as="geometry" />
        </mxCell>
        <mxCell id="nfWsPFXT3LQyvgMIe1YN-51" value="장비" style="rounded=0;whiteSpace=wrap;html=1;" vertex="1" parent="1">
          <mxGeometry x="483" y="631" width="57" height="79.5" as="geometry" />
        </mxCell>
        <mxCell id="nfWsPFXT3LQyvgMIe1YN-53" value="악세1" style="rounded=0;whiteSpace=wrap;html=1;" vertex="1" parent="1">
          <mxGeometry x="417" y="716" width="57" height="79.5" as="geometry" />
        </mxCell>
        <mxCell id="nfWsPFXT3LQyvgMIe1YN-56" value="악세2" style="rounded=0;whiteSpace=wrap;html=1;" vertex="1" parent="1">
          <mxGeometry x="483" y="715" width="57" height="79.5" as="geometry" />
        </mxCell>
        <mxCell id="nfWsPFXT3LQyvgMIe1YN-57" value="" style="endArrow=none;html=1;rounded=0;fontSize=12;startSize=8;endSize=8;curved=1;exitX=1;exitY=0.5;exitDx=0;exitDy=0;entryX=0;entryY=0.5;entryDx=0;entryDy=0;" edge="1" parent="1" source="nfWsPFXT3LQyvgMIe1YN-21" target="nfWsPFXT3LQyvgMIe1YN-49">
          <mxGeometry width="50" height="50" relative="1" as="geometry">
            <mxPoint x="355" y="647" as="sourcePoint" />
            <mxPoint x="405" y="597" as="targetPoint" />
          </mxGeometry>
        </mxCell>
        <mxCell id="nfWsPFXT3LQyvgMIe1YN-59" value="이름&lt;div&gt;체력&lt;/div&gt;&lt;div&gt;방어력&lt;/div&gt;&lt;div&gt;공격력&lt;/div&gt;&lt;div&gt;명중률&lt;/div&gt;&lt;div&gt;회피&lt;/div&gt;&lt;div&gt;...&lt;/div&gt;" style="rounded=0;whiteSpace=wrap;html=1;" vertex="1" parent="1">
          <mxGeometry x="575" y="636" width="91" height="118.5" as="geometry" />
        </mxCell>
        <mxCell id="nfWsPFXT3LQyvgMIe1YN-60" value="팝업 창" style="text;html=1;align=center;verticalAlign=middle;whiteSpace=wrap;rounded=0;" vertex="1" parent="1">
          <mxGeometry x="590.5" y="762" width="60" height="30" as="geometry" />
        </mxCell>
        <mxCell id="nfWsPFXT3LQyvgMIe1YN-61" value="" style="rounded=0;whiteSpace=wrap;html=1;" vertex="1" parent="1">
          <mxGeometry x="-204" y="878" width="176" height="272" as="geometry" />
        </mxCell>
        <mxCell id="nfWsPFXT3LQyvgMIe1YN-62" value="" style="rounded=0;whiteSpace=wrap;html=1;" vertex="1" parent="1">
          <mxGeometry x="-198" y="887" width="36" height="37" as="geometry" />
        </mxCell>
        <mxCell id="nfWsPFXT3LQyvgMIe1YN-63" value="" style="rounded=0;whiteSpace=wrap;html=1;" vertex="1" parent="1">
          <mxGeometry x="-157" y="887" width="36" height="37" as="geometry" />
        </mxCell>
        <mxCell id="nfWsPFXT3LQyvgMIe1YN-64" value="" style="rounded=0;whiteSpace=wrap;html=1;" vertex="1" parent="1">
          <mxGeometry x="-114" y="887" width="36" height="37" as="geometry" />
        </mxCell>
        <mxCell id="nfWsPFXT3LQyvgMIe1YN-65" value="" style="rounded=0;whiteSpace=wrap;html=1;" vertex="1" parent="1">
          <mxGeometry x="-73" y="887" width="37" height="38.03" as="geometry" />
        </mxCell>
        <mxCell id="nfWsPFXT3LQyvgMIe1YN-66" value="" style="rounded=0;whiteSpace=wrap;html=1;" vertex="1" parent="1">
          <mxGeometry x="-198" y="931" width="36" height="37" as="geometry" />
        </mxCell>
        <mxCell id="nfWsPFXT3LQyvgMIe1YN-67" value="" style="rounded=0;whiteSpace=wrap;html=1;" vertex="1" parent="1">
          <mxGeometry x="-157" y="931" width="36" height="37" as="geometry" />
        </mxCell>
        <mxCell id="nfWsPFXT3LQyvgMIe1YN-68" value="" style="rounded=0;whiteSpace=wrap;html=1;" vertex="1" parent="1">
          <mxGeometry x="-114" y="931" width="36" height="37" as="geometry" />
        </mxCell>
        <mxCell id="nfWsPFXT3LQyvgMIe1YN-69" value="" style="rounded=0;whiteSpace=wrap;html=1;" vertex="1" parent="1">
          <mxGeometry x="-73" y="931" width="37" height="38.03" as="geometry" />
        </mxCell>
        <mxCell id="nfWsPFXT3LQyvgMIe1YN-70" value="인벤토리" style="text;html=1;align=center;verticalAlign=middle;whiteSpace=wrap;rounded=0;" vertex="1" parent="1">
          <mxGeometry x="-150" y="979" width="60" height="30" as="geometry" />
        </mxCell>
        <mxCell id="nfWsPFXT3LQyvgMIe1YN-71" value="지도" style="text;html=1;align=center;verticalAlign=middle;whiteSpace=wrap;rounded=0;" vertex="1" parent="1">
          <mxGeometry x="-150" y="1117" width="60" height="30" as="geometry" />
        </mxCell>
        <mxCell id="nfWsPFXT3LQyvgMIe1YN-72" value="" style="rounded=0;whiteSpace=wrap;html=1;" vertex="1" parent="1">
          <mxGeometry x="-195" y="1027" width="17" height="19" as="geometry" />
        </mxCell>
        <mxCell id="nfWsPFXT3LQyvgMIe1YN-76" value="" style="rounded=0;whiteSpace=wrap;html=1;" vertex="1" parent="1">
          <mxGeometry x="-170" y="1027" width="17" height="19" as="geometry" />
        </mxCell>
        <mxCell id="nfWsPFXT3LQyvgMIe1YN-77" value="" style="rounded=0;whiteSpace=wrap;html=1;" vertex="1" parent="1">
          <mxGeometry x="-145" y="1027" width="17" height="19" as="geometry" />
        </mxCell>
        <mxCell id="nfWsPFXT3LQyvgMIe1YN-78" value="" style="rounded=0;whiteSpace=wrap;html=1;" vertex="1" parent="1">
          <mxGeometry x="-117" y="1027" width="17" height="19" as="geometry" />
        </mxCell>
        <mxCell id="nfWsPFXT3LQyvgMIe1YN-79" value="" style="rounded=0;whiteSpace=wrap;html=1;" vertex="1" parent="1">
          <mxGeometry x="-88" y="1027" width="17" height="19" as="geometry" />
        </mxCell>
        <mxCell id="nfWsPFXT3LQyvgMIe1YN-80" value="" style="rounded=0;whiteSpace=wrap;html=1;" vertex="1" parent="1">
          <mxGeometry x="-170" y="1056" width="17" height="19" as="geometry" />
        </mxCell>
        <mxCell id="nfWsPFXT3LQyvgMIe1YN-81" value="" style="rounded=0;whiteSpace=wrap;html=1;" vertex="1" parent="1">
          <mxGeometry x="-170" y="1084" width="17" height="19" as="geometry" />
        </mxCell>
        <mxCell id="nfWsPFXT3LQyvgMIe1YN-82" value="" style="rounded=0;whiteSpace=wrap;html=1;" vertex="1" parent="1">
          <mxGeometry x="-145" y="1084" width="17" height="19" as="geometry" />
        </mxCell>
        <mxCell id="nfWsPFXT3LQyvgMIe1YN-84" value="" style="rounded=0;whiteSpace=wrap;html=1;" vertex="1" parent="1">
          <mxGeometry x="-118" y="1084" width="17" height="19" as="geometry" />
        </mxCell>
        <mxCell id="nfWsPFXT3LQyvgMIe1YN-85" value="" style="rounded=0;whiteSpace=wrap;html=1;" vertex="1" parent="1">
          <mxGeometry x="-194" y="1084" width="17" height="19" as="geometry" />
        </mxCell>
        <mxCell id="nfWsPFXT3LQyvgMIe1YN-86" value="" style="rounded=0;whiteSpace=wrap;html=1;" vertex="1" parent="1">
          <mxGeometry x="-88" y="1057" width="17" height="19" as="geometry" />
        </mxCell>
        <mxCell id="nfWsPFXT3LQyvgMIe1YN-87" value="" style="rounded=0;whiteSpace=wrap;html=1;" vertex="1" parent="1">
          <mxGeometry x="-65" y="1057" width="17" height="19" as="geometry" />
        </mxCell>
      </root>
    </mxGraphModel>
  </diagram>
</mxfile>
